<svg viewBox="0 0 24 24" xmlns="http://www.w3.org/2000/svg"><style/><path d="M22.124 6.055a1.29 1.29 0 000-1.82l-2.357-2.357c-.486-.486-1.335-.485-1.82 0L12.205 7.62a.29.29 0 01-.406 0L6.055 1.877c-.486-.486-1.334-.487-1.821 0L1.876 4.234a1.29 1.29 0 000 1.82l5.742 5.742a.287.287 0 010 .406l-5.743 5.742a1.29 1.29 0 000 1.82l2.357 2.357c.487.487 1.336.486 1.82 0l5.742-5.742a.29.29 0 01.406 0l5.742 5.742c.243.243.566.377.911.377.344 0 .667-.134.91-.377l2.358-2.357a1.29 1.29 0 000-1.82l-5.742-5.742a.287.287 0 010-.406l5.745-5.741zm-6.451 6.855c.001 0 .001 0 0 0l5.742 5.742a.287.287 0 010 .406l-2.357 2.357a.293.293 0 01-.406 0l-5.742-5.742c-.251-.251-.581-.376-.91-.376s-.659.125-.91.376l-5.743 5.742a.293.293 0 01-.406 0l-2.357-2.357a.287.287 0 010-.406l5.743-5.742a1.29 1.29 0 000-1.82L2.584 5.348a.287.287 0 010-.406l2.357-2.357a.293.293 0 01.406 0l5.742 5.742a1.288 1.288 0 001.82 0l5.743-5.742a.293.293 0 01.406 0l2.357 2.357a.287.287 0 010 .406l-5.743 5.742c-.5.502-.5 1.318.001 1.82z" fill="#fff" id="icon"/></svg>